<svg width="456" height="456" viewBox="0 0 456 456" fill="none" xmlns="http://www.w3.org/2000/svg">
<g clip-path="url(#clip0)">
<path d="M141.82 456H239.836C267.188 456 292.496 440.117 305.883 414.398L390.668 251.562L385.883 247.645C385.793 247.566 385.703 247.488 385.617 247.41C378.25 240.48 368.336 236.922 358.246 237.594C347.941 238.379 338.426 243.414 331.977 251.492L307.52 281.266C305.645 283.547 302.535 284.406 299.754 283.41C296.969 282.414 295.113 279.781 295.109 276.824L294.969 71.9922C294.957 58.0312 284.559 46.6758 271.785 46.6758C259.293 46.6758 249.086 57.5039 248.613 71.0195C248.613 91.707 248.602 114.227 248.598 135.66C248.59 184.137 248.582 225.977 248.598 230.035C248.606 231.887 247.871 233.664 246.563 234.973C245.25 236.277 243.473 237.008 241.621 237H241.598C239.75 237.016 237.977 236.293 236.66 234.996C235.348 233.699 234.606 231.93 234.598 230.086C234.582 226 234.59 184.184 234.598 135.684C234.598 114.762 234.606 92.793 234.609 72.5117C234.598 72.3477 234.59 72.1953 234.59 72.0312C234.59 71.6328 234.598 71.25 234.609 70.8516C234.609 53.8242 234.609 38.0977 234.609 25.2227C234.617 11.2656 224.215 0 211.434 0H210.723C197.941 0 187.336 11.1758 187.336 25.1445V230.117C187.336 233.98 184.199 237.117 180.336 237.117C176.469 237.117 173.336 233.98 173.336 230.117V51.6445C173.336 37.6758 163.152 26.3125 150.371 26.3125C137.516 26.3125 127.336 37.6758 127.336 51.6445V230.117C127.336 233.98 124.199 237.117 120.336 237.117C116.469 237.117 113.336 233.98 113.336 230.117V124.914C113.336 110.941 102.707 100 89.922 100H89.254C76.504 100 66.1016 111.074 66.0704 125C65.9376 182.488 66.0196 283.844 66.1056 374.57C66.1446 419.523 100.113 456 141.82 456V456Z" fill="#FFCC80"/>
</g>
<defs>
<clipPath id="clip0">
<rect width="456" height="456" fill="white"/>
</clipPath>
</defs>
</svg>
